<?xml version="1.0" encoding="utf-8"?>
<!-- Generator: Adobe Illustrator 18.1.1, SVG Export Plug-In . SVG Version: 6.00 Build 0)  -->
<svg version="1.1" id="BG_1_" xmlns="http://www.w3.org/2000/svg" xmlns:xlink="http://www.w3.org/1999/xlink" x="0px" y="0px"
	 viewBox="0 0.009 599.81 143.985" enable-background="new 0 0.009 599.81 143.985" xml:space="preserve">
<linearGradient id="SVGID_1_" gradientUnits="userSpaceOnUse" x1="122.8229" y1="821.6044" x2="21.0102" y2="719.7916" gradientTransform="matrix(1 0 0 1 0.0801 -698.6909)">
	<stop  offset="0" style="stop-color:#7070B2"/>
	<stop  offset="1" style="stop-color:#3CC4EC"/>
</linearGradient>
<path fill="url(#SVGID_1_)" d="M103.92,7.443c-1.055-0.521-2.121-1.016-3.195-1.482c-2.15-0.934-4.336-1.757-6.549-2.472
	C69.273-4.543,40.863,1.327,21.091,21.1l0,0C8.705,33.485,1.775,49.26,0.3,65.438c-0.135,1.473-0.224,2.947-0.268,4.42
	c-0.044,1.477-0.043,2.953,0.003,4.428c0.138,4.426,0.682,8.84,1.633,13.187c0.371,1.694,0.803,3.379,1.298,5.049
	c0.33,1.113,0.686,2.222,1.071,3.319c0.384,1.101,0.796,2.19,1.235,3.274c0.44,1.085,0.907,2.158,1.4,3.226
	c3.46,7.457,8.266,14.443,14.418,20.597c0.563,0.563,1.136,1.11,1.712,1.651c0.154,0.143,0.307,0.285,0.461,0.429
	c0.5,0.459,1.004,0.912,1.514,1.354c0.088,0.078,0.177,0.157,0.266,0.235c0.596,0.513,1.198,1.015,1.806,1.504
	c0.133,0.107,0.269,0.211,0.402,0.318c0.524,0.416,1.053,0.825,1.586,1.227c0.112,0.082,0.221,0.169,0.331,0.25
	c0.642,0.479,1.292,0.941,1.946,1.396c0.061,0.041,0.122,0.082,0.184,0.125c0.613,0.422,1.231,0.828,1.854,1.229
	c0.093,0.061,0.183,0.119,0.274,0.178c1.394,0.885,2.811,1.719,4.25,2.498c0.029,0.018,0.059,0.033,0.088,0.049
	c17.136,9.26,37.232,11.047,55.528,5.393c0.004,0.016,0.008,0.029,0.012,0.043c10.189-3.143,19.816-8.598,28.061-16.365
	c-5.371-5.348-13.452-6.313-19.803-2.896c0.003-0.01,0.007-0.018,0.011-0.025c-22.153,13.25-51.269,10.365-70.352-8.719
	C8.695,90.279,8.695,53.758,31.222,31.229c22.525-22.525,59.048-22.525,81.574,0c18.868,18.868,21.906,47.543,9.17,69.599
	c-0.14,0.24-0.271,0.482-0.414,0.723c-0.021,0.035-0.039,0.072-0.063,0.107c0.001,0,0.002,0,0.002,0
	c-3.356,6.338-2.374,14.371,2.946,19.717c7.769-8.244,13.224-17.873,16.368-28.062c-0.011-0.002-0.022-0.004-0.034-0.008
	c5.352-17.32,4.033-36.256-3.98-52.765c-0.005-0.01-0.01-0.021-0.014-0.03c-0.375-0.771-0.764-1.533-1.166-2.29
	c-0.013-0.024-0.025-0.048-0.039-0.071c-0.371-0.698-0.759-1.393-1.155-2.081c-0.05-0.084-0.096-0.169-0.144-0.25
	c-0.412-0.711-0.839-1.416-1.277-2.113c-0.034-0.054-0.069-0.106-0.104-0.161c-0.396-0.627-0.807-1.248-1.225-1.866
	c-0.086-0.127-0.172-0.254-0.258-0.381c-0.455-0.662-0.92-1.318-1.4-1.969c-0.043-0.06-0.09-0.119-0.136-0.18
	c-0.433-0.584-0.878-1.162-1.332-1.734c-0.116-0.148-0.235-0.298-0.354-0.445c-0.501-0.623-1.011-1.242-1.534-1.851
	c-0.037-0.045-0.076-0.087-0.113-0.13c-0.49-0.566-0.992-1.126-1.503-1.68c-0.139-0.153-0.28-0.305-0.422-0.455
	c-0.552-0.592-1.113-1.179-1.69-1.755C117.214,15.388,110.781,10.835,103.92,7.443z"/>
<path id="A" fill="#FFFFFF" d="M205.597,27.745l-37.486,88.704h8.316l11.482-27.059h41.711l11.484,27.059h8.316l-37.488-88.704
	H205.597z M191.077,81.734l17.688-41.845l17.688,41.845H191.077z"/>
<polygon id="M" fill="#FFFFFF" points="321.392,70.514 286.807,27.745 278.36,27.745 278.36,116.449 286.807,116.449 
	286.807,41.209 321.392,83.846 355.976,41.209 355.976,116.449 364.423,116.449 364.423,27.745 355.976,27.745 "/>
<path id="I" fill="#FFFFFF" d="M410.644,108.481c0.004-0.016,0.008-0.024,0.008-0.037V27.745h-8.447v88.704h0.057
	c4.631,0,8.387-3.754,8.387-8.385v0.416H410.644z"/>
<polygon id="T" fill="#FFFFFF" points="441.853,35.402 470.761,35.402 470.761,116.449 479.21,116.449 479.21,35.402 
	508.117,35.402 508.117,27.746 441.853,27.746 "/>
<polygon id="Y" fill="#FFFFFF" points="589.91,27.746 565.621,64.574 541.466,27.746 531.566,27.746 561.398,73.022 
	561.398,116.449 569.845,116.449 569.845,73.022 599.81,27.746 "/>
</svg>
